<?xml version="1.0" encoding="UTF-8" standalone="no"?>
<svg
   xmlns:dc="http://purl.org/dc/elements/1.1/"
   xmlns:cc="http://creativecommons.org/ns#"
   xmlns:rdf="http://www.w3.org/1999/02/22-rdf-syntax-ns#"
   xmlns:svg="http://www.w3.org/2000/svg"
   xmlns="http://www.w3.org/2000/svg"
   xmlns:sodipodi="http://sodipodi.sourceforge.net/DTD/sodipodi-0.dtd"
   xmlns:inkscape="http://www.inkscape.org/namespaces/inkscape"
   inkscape:version="1.0 (4035a4fb49, 2020-05-01)"
   sodipodi:docname="SentirExtranjero-Logo.svg"
   viewBox="0 0 1093.4772 531.151"
   height="531.151"
   width="1093.4772"
   xml:space="preserve"
   id="svg2"
   version="1.1"><metadata
     id="metadata8"><rdf:RDF><cc:Work
         rdf:about=""><dc:format>image/svg+xml</dc:format><dc:type
           rdf:resource="http://purl.org/dc/dcmitype/StillImage" /><dc:title></dc:title></cc:Work></rdf:RDF></metadata><defs
     id="defs6"><clipPath
       id="clipPath18"
       clipPathUnits="userSpaceOnUse"><path
         id="path16"
         d="M 0,595.28 H 841.89 V 0 H 0 Z" /></clipPath><clipPath
       id="clipPath94"
       clipPathUnits="userSpaceOnUse"><path
         id="path92"
         d="m 449.653,280.159 h 11.63 v -50.147 h -11.63 z" /></clipPath><clipPath
       id="clipPath110"
       clipPathUnits="userSpaceOnUse"><path
         id="path108"
         d="m 430.395,260.899 h 50.147 v -11.624 h -50.147 z" /></clipPath></defs><sodipodi:namedview
     inkscape:current-layer="g10"
     inkscape:window-maximized="1"
     inkscape:window-y="-9"
     inkscape:window-x="-9"
     inkscape:cy="376.05004"
     inkscape:cx="896.22513"
     inkscape:zoom="0.73944022"
     inkscape:snap-page="false"
     showgrid="false"
     id="namedview4"
     inkscape:window-height="1001"
     inkscape:window-width="1920"
     inkscape:pageshadow="2"
     inkscape:pageopacity="0"
     guidetolerance="10"
     gridtolerance="10"
     objecttolerance="10"
     borderopacity="1"
     bordercolor="#666666"
     pagecolor="#ffffff" /><g
     transform="matrix(1.3333333,0,0,-1.3333333,-14.645306,663.13077)"
     inkscape:label="SentirExtranjero-Logo"
     inkscape:groupmode="layer"
     id="g10"><g
       id="g12"><g
         clip-path="url(#clipPath18)"
         id="g14"><g
           transform="matrix(2.273484,0,0,2.273484,191.43871,440.86111)"
           id="g20"><path
             id="path22"
             style="fill:#031247;fill-opacity:1;fill-rule:nonzero;stroke:none"
             d="m 0,0 v 7.925 h 0.909 c 1.03,-5.162 3.472,-7.743 7.325,-7.743 1.733,0 3.075,0.493 4.026,1.481 0.951,0.987 1.427,2.093 1.427,3.317 0,1.236 -0.418,2.272 -1.254,3.108 -0.836,0.824 -2.364,1.709 -4.58,2.654 -1.976,0.848 -3.466,1.59 -4.472,2.226 -1.006,0.636 -1.79,1.464 -2.354,2.481 -0.563,1.018 -0.844,2.102 -0.844,3.254 0,1.756 0.608,3.22 1.826,4.389 1.218,1.169 2.76,1.754 4.626,1.754 1.042,0 2.023,-0.17 2.944,-0.509 0.921,-0.339 1.866,-1.042 2.835,-2.108 0.558,0.666 0.873,1.387 0.945,2.163 h 0.8 v -6.453 h -0.8 c -0.461,1.878 -1.275,3.356 -2.444,4.435 -1.17,1.079 -2.523,1.618 -4.062,1.618 -1.466,0 -2.542,-0.397 -3.226,-1.191 C 2.941,22.008 2.6,21.138 2.6,20.193 c 0,-1.139 0.429,-2.102 1.29,-2.89 0.848,-0.8 2.381,-1.697 4.598,-2.69 2.12,-0.945 3.662,-1.705 4.626,-2.281 0.963,-0.576 1.736,-1.372 2.318,-2.39 0.581,-1.018 0.872,-2.193 0.872,-3.526 0,-2.108 -0.702,-3.823 -2.109,-5.144 C 12.79,-0.048 10.912,-0.709 8.562,-0.709 5.859,-0.709 3.605,0.327 1.8,2.399 1.4,1.83 1.103,1.03 0.909,0 Z" /></g><g
           transform="matrix(2.273484,0,0,2.273484,280.69501,457.72013)"
           id="g24"><path
             id="path26"
             style="fill:#031247;fill-opacity:1;fill-rule:nonzero;stroke:none"
             d="M 0,0 H 0.872 L 0.346,-7.67 h -20.411 v 0.836 h 0.508 c 1.224,0 2.014,0.164 2.371,0.491 0.358,0.327 0.585,0.742 0.682,1.245 0.098,0.503 0.146,1.784 0.146,3.844 v 12.087 c 0,1.878 -0.052,3.114 -0.155,3.708 -0.102,0.593 -0.339,1.008 -0.709,1.245 -0.369,0.236 -1.147,0.354 -2.335,0.354 v 0.836 h 17.613 l 0.581,-6.143 h -0.855 c -0.387,1.72 -0.863,2.941 -1.427,3.662 -0.563,0.721 -1.232,1.175 -2.007,1.363 -0.776,0.188 -2.025,0.282 -3.744,0.282 h -3.417 V 5.798 h 2.617 c 1.199,0 2.038,0.103 2.516,0.309 0.479,0.206 0.794,0.518 0.946,0.936 0.151,0.418 0.227,1.233 0.227,2.445 h 0.855 V 1.054 h -0.855 c 0,1.369 -0.115,2.287 -0.346,2.754 -0.23,0.466 -0.566,0.769 -1.008,0.909 -0.443,0.139 -1.191,0.209 -2.244,0.209 h -2.708 v -5.835 c 0,-2.92 0.187,-4.637 0.563,-5.153 0.375,-0.515 1.387,-0.772 3.035,-0.772 h 1.836 c 1.296,0 2.362,0.167 3.198,0.5 0.836,0.333 1.633,1.018 2.391,2.054 0.757,1.036 1.353,2.463 1.79,4.28" /></g><g
           transform="matrix(2.273484,0,0,2.273484,337.38775,439.00162)"
           id="g28"><path
             id="path30"
             style="fill:#031247;fill-opacity:1;fill-rule:nonzero;stroke:none"
             d="M 0,0 -17.43,23.101 V 5.998 c 0,-1.418 0.07,-2.351 0.209,-2.799 0.139,-0.449 0.536,-0.861 1.191,-1.236 0.654,-0.376 1.635,-0.564 2.944,-0.564 V 0.563 h -9.197 v 0.836 c 1.176,0.085 2.072,0.3 2.69,0.646 0.618,0.345 0.985,0.718 1.1,1.118 0.115,0.4 0.173,1.345 0.173,2.835 v 13.068 c 0,1.891 -0.089,3.157 -0.264,3.799 -0.176,0.642 -0.455,1.054 -0.836,1.236 -0.382,0.182 -1.233,0.273 -2.554,0.273 v 0.835 h 7.27 L -0.108,5.925 v 14.741 c 0,1.09 -0.113,1.854 -0.337,2.29 -0.224,0.436 -0.682,0.781 -1.372,1.036 -0.691,0.254 -1.521,0.382 -2.491,0.382 v 0.835 H 4.635 V 24.374 C 3.593,24.289 2.772,24.089 2.172,23.774 1.572,23.458 1.19,23.08 1.027,22.638 0.863,22.195 0.782,21.447 0.782,20.393 V 0 Z" /></g><g
           transform="matrix(2.273484,0,0,2.273484,352.80265,482.84394)"
           id="g32"><path
             id="path34"
             style="fill:#031247;fill-opacity:1;fill-rule:nonzero;stroke:none"
             d="m 0,0 h -0.836 l 0.127,5.925 H 23.21 L 23.337,0 H 22.556 C 22.276,1.624 21.896,2.796 21.41,3.517 20.926,4.238 20.404,4.68 19.848,4.844 19.29,5.007 18.339,5.089 16.994,5.089 h -3.963 v -17.394 c 0,-1.926 0.046,-3.193 0.137,-3.799 0.091,-0.605 0.336,-1.054 0.736,-1.344 0.4,-0.291 1.151,-0.437 2.254,-0.437 h 1.199 v -0.836 H 5.07 v 0.836 h 1.273 c 1.054,0 1.784,0.134 2.19,0.4 0.406,0.267 0.666,0.682 0.781,1.245 0.116,0.564 0.173,1.875 0.173,3.935 V 5.089 H 5.834 C 4.246,5.089 3.181,5.014 2.635,4.862 2.09,4.71 1.578,4.253 1.1,3.49 0.62,2.727 0.254,1.563 0,0" /></g><g
           transform="matrix(2.273484,0,0,2.273484,409.99055,494.41438)"
           id="g36"><path
             id="path38"
             style="fill:#031247;fill-opacity:1;fill-rule:nonzero;stroke:none"
             d="M 0,0 V 0.836 H 11.269 V 0 H 10.741 C 9.53,0 8.736,-0.1 8.361,-0.3 7.985,-0.5 7.734,-0.873 7.606,-1.417 7.479,-1.963 7.416,-3.26 7.416,-5.307 v -12.087 c 0,-1.939 0.045,-3.208 0.136,-3.808 0.091,-0.6 0.334,-1.045 0.727,-1.336 0.394,-0.291 1.148,-0.436 2.263,-0.436 h 0.727 V -23.81 H 0 v 0.836 h 0.728 c 1.053,0 1.784,0.133 2.189,0.4 0.406,0.266 0.664,0.681 0.772,1.245 0.11,0.563 0.165,1.875 0.165,3.935 v 12.087 c 0,1.963 -0.055,3.229 -0.165,3.798 -0.108,0.57 -0.351,0.964 -0.726,1.182 C 2.587,-0.109 1.775,0 0.527,0 Z" /></g><g
           transform="matrix(2.273484,0,0,2.273484,456.93231,469.2085)"
           id="g40"><path
             id="path42"
             style="fill:#031247;fill-opacity:1;fill-rule:nonzero;stroke:none"
             d="m 0,0 c 0.908,0.024 1.848,0.06 2.817,0.109 0.969,0.048 1.812,0.182 2.527,0.4 0.715,0.218 1.293,0.536 1.735,0.954 0.442,0.418 0.791,0.966 1.045,1.645 0.255,0.678 0.382,1.515 0.382,2.508 0,1.733 -0.434,3.12 -1.3,4.162 C 6.34,10.82 4.453,11.341 1.545,11.341 1.097,11.341 0.581,11.317 0,11.269 Z m 18.63,-12.723 h -6.634 c -1.176,0.824 -2.975,2.981 -5.398,6.471 -0.776,1.114 -1.581,2.183 -2.417,3.208 -0.837,1.023 -1.412,1.647 -1.728,1.872 -0.314,0.224 -0.806,0.336 -1.472,0.336 H 0 v -5.471 c 0,-1.939 0.045,-3.208 0.136,-3.808 0.092,-0.6 0.334,-1.045 0.727,-1.336 0.394,-0.291 1.148,-0.436 2.263,-0.436 h 1.182 v -0.836 H -7.488 v 0.836 h 0.8 c 1.053,0 1.784,0.133 2.189,0.4 0.406,0.266 0.664,0.681 0.772,1.245 0.11,0.563 0.164,1.875 0.164,3.935 V 5.78 c 0,1.963 -0.054,3.229 -0.164,3.798 -0.108,0.57 -0.351,0.964 -0.726,1.182 -0.376,0.218 -1.188,0.327 -2.436,0.327 h -0.418 v 0.836 l 3.527,0.182 c 2.35,0.109 4.217,0.164 5.597,0.164 2.351,0 4.263,-0.219 5.735,-0.655 1.472,-0.436 2.663,-1.151 3.571,-2.145 0.909,-0.993 1.363,-2.181 1.363,-3.562 0,-1.612 -0.593,-2.987 -1.781,-4.126 -1.187,-1.139 -2.933,-1.848 -5.234,-2.127 1.03,-0.497 2.69,-2.29 4.98,-5.38 1.865,-2.508 3.332,-4.15 4.399,-4.925 1.065,-0.776 2.326,-1.188 3.78,-1.236 z" /></g><g
           transform="matrix(2.273484,0,0,2.273484,193.81087,361.67543)"
           id="g44"><path
             id="path46"
             style="fill:#031247;fill-opacity:1;fill-rule:nonzero;stroke:none"
             d="m 0,0 c 0.514,0.872 1.207,0.974 2.08,0.308 0.769,-0.618 0.896,-1.336 0.385,-2.157 -11.602,-19.147 -24.946,-33.287 -40.039,-42.425 -12.884,-7.75 -22.559,-9.751 -29.027,-6.004 -1.385,0.82 -2.476,1.883 -3.272,3.195 -0.796,1.308 -1.308,2.708 -1.538,4.196 -0.233,1.488 -0.27,3.066 -0.118,4.734 0.154,1.666 0.436,3.236 0.847,4.699 0.411,1.461 0.899,2.885 1.463,4.275 1.181,2.616 2.669,5.181 4.467,7.697 1.795,2.513 3.85,4.876 6.159,7.081 2.31,2.21 4.53,4.184 6.661,5.932 2.128,1.742 4.553,3.589 7.274,5.541 3.132,2.258 8.059,5.521 14.783,9.78 0.361,0.258 1.181,0.728 2.466,1.426 1.281,0.691 2.412,1.356 3.387,1.998 0.974,0.642 1.744,1.295 2.31,1.966 -0.258,0 -0.566,-0.054 -0.923,-0.156 -0.362,-0.102 -0.888,-0.177 -1.579,-0.231 -0.693,-0.051 -1.117,-0.076 -1.271,-0.076 -1.283,-0.153 -3.644,-0.566 -7.084,-1.232 -9.907,-2.001 -16.093,-3.182 -18.556,-3.542 -0.204,0 -0.538,-0.053 -1,-0.153 -1.849,-0.256 -3.298,-0.453 -4.351,-0.579 -1.052,-0.126 -2.566,-0.282 -4.543,-0.462 -1.976,-0.179 -3.657,-0.204 -5.043,-0.077 -1.385,0.127 -2.888,0.346 -4.504,0.656 -1.618,0.307 -3.055,0.818 -4.311,1.538 -1.259,0.72 -2.35,1.617 -3.274,2.696 -1.333,1.59 -2.077,3.375 -2.231,5.351 -0.155,1.976 0.204,3.938 1.077,5.89 0.874,1.951 1.848,3.696 2.927,5.236 1.077,1.538 2.31,3.052 3.695,4.544 4.209,4.567 9.099,8.648 14.668,12.242 5.569,3.591 11.381,6.493 17.44,8.7 12.678,4.566 22.301,4.364 28.872,-0.615 0.514,-0.414 0.718,-0.913 0.617,-1.503 -0.103,-0.592 -0.399,-0.987 -0.887,-1.194 -0.487,-0.205 -1.014,-0.153 -1.578,0.152 -7.7,5.906 -19.864,4.39 -36.495,-4.543 -16.735,-8.98 -25.743,-17.813 -27.026,-26.482 -0.821,-5.187 2.182,-8.24 9.008,-9.164 6.16,-0.773 16.709,0.41 31.645,3.542 7.29,1.487 11.549,2.256 12.782,2.31 0.873,0.05 1.642,0.037 2.31,-0.04 0.665,-0.075 1.334,-0.257 2.002,-0.535 0.666,-0.288 1.012,-0.709 1.039,-1.272 0.025,-0.565 -0.142,-1.312 -0.499,-2.233 -0.361,-0.616 -0.874,-1.194 -1.542,-1.735 -0.668,-0.538 -1.592,-1.153 -2.772,-1.848 -1.181,-0.691 -1.847,-1.089 -2.002,-1.191 -0.974,-0.617 -2.168,-1.374 -3.579,-2.272 -1.413,-0.901 -2.786,-1.77 -4.12,-2.619 -1.336,-0.846 -2.54,-1.628 -3.619,-2.346 -5.852,-3.902 -10.895,-7.613 -15.129,-11.128 -4.234,-3.515 -7.867,-7.404 -10.895,-11.663 -0.924,-1.284 -1.836,-2.771 -2.732,-4.466 -0.899,-1.694 -1.682,-3.605 -2.35,-5.735 -0.665,-2.131 -1.053,-4.132 -1.155,-6.007 -0.103,-1.874 0.296,-3.591 1.193,-5.16 0.9,-1.563 2.374,-2.63 4.429,-3.194 6.877,-2.104 16.553,1.258 29.026,10.088 C -21.355,-29.233 -10.008,-16.478 0,0" /></g><g
           transform="matrix(2.273484,0,0,2.273484,289.86125,360.79718)"
           id="g48"><path
             id="path50"
             style="fill:#031247;fill-opacity:1;fill-rule:nonzero;stroke:none"
             d="M 0,0 C 0.409,0.461 0.925,0.643 1.541,0.539 2.156,0.435 2.566,0.154 2.772,-0.31 2.976,-0.769 2.9,-1.259 2.54,-1.771 2.08,-2.232 0.937,-3.53 -0.885,-5.658 c -1.823,-2.131 -3.209,-3.684 -4.158,-4.656 -0.95,-0.98 -2.257,-2.247 -3.926,-3.816 -1.668,-1.568 -3.286,-2.796 -4.851,-3.693 -1.567,-0.9 -3.146,-1.578 -4.735,-2.042 -3.696,-1.077 -7.289,0.693 -10.78,5.311 -2.105,-2.925 -3.748,-5.336 -4.928,-7.235 -0.359,-0.511 -0.82,-0.718 -1.385,-0.615 -0.565,0.104 -0.962,0.397 -1.193,0.883 -0.233,0.488 -0.219,1.014 0.037,1.58 1.284,2.002 3.158,4.697 5.621,8.083 -0.565,0.82 -1.618,2.567 -3.156,5.237 -1.541,2.666 -2.67,4.439 -3.389,5.313 -0.41,0.511 -0.486,1.038 -0.23,1.577 0.258,0.54 0.643,0.859 1.154,0.964 0.513,0.101 1.002,-0.079 1.463,-0.539 0.771,-0.924 1.912,-2.657 3.428,-5.198 1.512,-2.541 2.424,-4.069 2.732,-4.583 2.772,3.901 4.902,7.136 6.39,9.702 0.31,0.567 0.746,0.797 1.309,0.692 0.565,-0.103 0.976,-0.395 1.232,-0.883 0.257,-0.488 0.257,-1.039 0,-1.656 -1.54,-2.617 -3.901,-6.134 -7.083,-10.548 3.645,-4.672 7.391,-5.8 11.242,-3.387 0.77,0.462 1.54,0.987 2.309,1.576 0.77,0.589 1.463,1.13 2.08,1.618 0.616,0.489 1.346,1.129 2.194,1.929 0.847,0.792 1.488,1.407 1.925,1.845 0.434,0.436 1.116,1.139 2.04,2.118 0.923,0.973 1.541,1.627 1.847,1.961 0.309,0.335 0.949,1.05 1.926,2.157 C -0.796,-0.859 -0.206,-0.207 0,0" /></g><g
           transform="matrix(2.273484,0,0,2.273484,299.52128,405.33451)"
           id="g52"><path
             id="path54"
             style="fill:#031247;fill-opacity:1;fill-rule:nonzero;stroke:none"
             d="m 0,0 c 1.436,6.007 1.889,6.792 3.38,11.825 0.205,0.616 0.578,0.946 1.118,0.999 0.538,0.051 1.011,-0.142 1.423,-0.577 C 6.331,11.813 6.459,11.288 6.306,10.67 5.021,6.357 4.697,6.131 3.31,0.539 L 2.462,-2.772 c -4.979,-20.996 -9.042,-46.973 -10.17,-68.481 -0.052,-0.617 -0.346,-1.027 -0.885,-1.232 -0.539,-0.204 -1.053,-0.155 -1.539,0.154 -0.49,0.305 -0.733,0.768 -0.733,1.386 1.179,21.2 5.193,46.895 10.016,67.634 z" /></g><g
           transform="matrix(2.273484,0,0,2.273484,315.74532,347.31952)"
           id="g56"><path
             id="path58"
             style="fill:#031247;fill-opacity:1;fill-rule:nonzero;stroke:none"
             d="M 0,0 C 1.438,2.617 3.026,4.824 4.774,6.622 5.082,6.93 5.453,7.056 5.889,7.006 6.326,6.952 6.671,6.777 6.928,6.467 9.75,3.386 13.217,1.694 17.324,1.384 c 4.105,-0.309 7.777,0.849 11.01,3.465 0.309,0.256 0.626,0.386 0.963,0.386 0.332,0 0.626,-0.104 0.884,-0.306 C 30.437,4.723 30.63,4.477 30.76,4.195 30.886,3.914 30.925,3.619 30.875,3.311 30.822,3.001 30.645,2.718 30.336,2.463 26.641,-0.463 22.493,-1.851 17.901,-1.693 13.307,-1.541 9.288,0.103 5.852,3.232 4.004,1.025 2.451,-1.618 1.193,-4.697 c -1.258,-3.079 -2.221,-6.263 -2.887,-9.548 -0.103,-0.616 -0.412,-1.025 -0.925,-1.231 -0.512,-0.204 -1,-0.154 -1.463,0.152 -0.462,0.31 -0.692,0.798 -0.692,1.465 0.205,6.982 1.566,15.014 4.08,24.101 0.154,0.614 0.514,0.949 1.079,0.998 C 0.949,11.293 1.438,11.1 1.848,10.664 2.258,10.228 2.386,9.727 2.232,9.163 1.359,6.032 0.615,2.976 0,0" /></g><g
           transform="matrix(2.273484,0,0,2.273484,465.64657,359.04887)"
           id="g60"><path
             id="path62"
             style="fill:#031247;fill-opacity:1;fill-rule:nonzero;stroke:none"
             d="M 0,0 C 0.412,0.459 0.886,0.575 1.425,0.346 1.965,0.115 2.283,-0.27 2.388,-0.809 2.49,-1.349 2.335,-1.875 1.925,-2.387 0.949,-3.365 -0.296,-4.454 -1.811,-5.662 -3.324,-6.866 -5.07,-8.138 -7.046,-9.471 c -1.975,-1.336 -3.951,-2.426 -5.93,-3.269 -1.975,-0.849 -3.847,-1.429 -5.617,-1.735 -1.772,-0.31 -3.311,-0.04 -4.622,0.809 -1.309,0.844 -2.168,2.32 -2.577,4.425 -0.412,-0.304 -0.914,-0.705 -1.503,-1.193 -0.59,-0.49 -1.115,-0.925 -1.578,-1.309 -0.461,-0.383 -1,-0.794 -1.618,-1.234 -0.615,-0.434 -1.18,-0.819 -1.693,-1.152 -0.512,-0.334 -1.078,-0.642 -1.693,-0.923 -0.618,-0.285 -1.22,-0.49 -1.811,-0.618 -0.59,-0.126 -1.205,-0.205 -1.848,-0.23 -0.642,-0.026 -1.267,0.064 -1.885,0.269 -1.181,0.308 -2.093,0.923 -2.733,1.846 -0.641,0.928 -0.963,1.927 -0.963,3.004 0,1.078 0.155,2.208 0.462,3.388 0.615,2.207 1.745,4.107 3.386,5.7 1.644,1.589 3.492,2.718 5.547,3.387 2.051,0.665 4.219,0.908 6.505,0.732 2.283,-0.183 4.375,-0.836 6.274,-1.967 0.923,-0.513 1.053,-1.182 0.384,-2 -0.616,-0.821 -1.334,-0.976 -2.154,-0.462 -3.903,2.259 -7.88,2.182 -11.936,-0.23 -0.821,-0.513 -1.578,-1.078 -2.269,-1.696 -0.692,-0.615 -1.348,-1.346 -1.964,-2.192 -0.617,-0.849 -0.914,-1.671 -0.887,-2.467 0.026,-0.792 0.372,-1.627 1.04,-2.501 0.718,-0.769 1.541,-1.153 2.466,-1.153 0.923,0 1.871,0.296 2.846,0.883 0.976,0.592 1.914,1.243 2.811,1.963 0.898,0.719 1.874,1.513 2.926,2.386 1.051,0.875 1.888,1.514 2.501,1.927 0.515,0.31 1.003,0.256 1.464,-0.155 0.463,-0.409 0.694,-0.897 0.694,-1.462 0.1,-5.748 3.977,-6.365 11.626,-1.846 4.107,2.411 7.803,5.157 11.087,8.236 C -0.207,-0.155 -0.104,-0.054 0,0" /></g><g
           transform="matrix(2.273484,0,0,2.273484,581.11251,359.04887)"
           id="g64"><path
             id="path66"
             style="fill:#031247;fill-opacity:1;fill-rule:nonzero;stroke:none"
             d="M 0,0 C 0.409,0.459 0.91,0.639 1.502,0.539 2.091,0.435 2.501,0.14 2.734,-0.346 2.964,-0.835 2.899,-1.335 2.541,-1.848 1.258,-3.44 -0.258,-5.083 -2.003,-6.777 c -1.746,-1.693 -3.799,-3.374 -6.157,-5.042 -2.363,-1.67 -4.672,-2.98 -6.93,-3.928 -2.261,-0.948 -4.571,-1.307 -6.93,-1.077 -2.362,0.231 -4.388,1.244 -6.083,3.039 -0.924,1.03 -2.169,2.542 -3.734,4.544 -1.566,2.001 -2.709,3.415 -3.427,4.234 -0.462,0.463 -0.899,0.833 -1.31,1.118 -0.409,0.28 -0.77,0.474 -1.077,0.578 -0.308,0.103 -0.644,0.076 -1.001,-0.078 -0.358,-0.156 -0.654,-0.296 -0.884,-0.425 -0.232,-0.125 -0.528,-0.395 -0.887,-0.806 -0.36,-0.412 -0.617,-0.746 -0.77,-1.002 -0.155,-0.256 -0.437,-0.683 -0.847,-1.268 -0.411,-0.592 -0.691,-0.993 -0.847,-1.195 -0.257,-0.413 -0.937,-1.707 -2.04,-3.887 -1.103,-2.184 -2.233,-4.034 -3.386,-5.546 -1.158,-1.513 -2.246,-2.347 -3.274,-2.503 -0.615,-0.102 -1.105,0.077 -1.464,0.54 -0.356,0.512 -0.627,1.065 -0.809,1.658 -0.175,0.587 -0.242,1.307 -0.19,2.153 0.05,0.848 0.104,1.501 0.154,1.964 0.051,0.46 0.178,1.205 0.385,2.232 0.203,1.026 0.333,1.618 0.384,1.771 0.309,1.952 0.9,4.735 1.772,8.354 0.871,3.62 1.383,5.789 1.539,6.508 0.155,0.563 0.512,0.948 1.078,1.155 0.565,0.202 1.079,0.153 1.539,-0.157 0.464,-0.305 0.618,-0.768 0.464,-1.384 -0.258,-1.132 -0.696,-2.99 -1.309,-5.582 -0.618,-2.592 -1.078,-4.583 -1.387,-5.968 -0.615,-3.029 -1.001,-5.136 -1.154,-6.313 v -0.695 c 0.409,0.773 0.936,1.592 1.578,2.466 0.64,0.871 1.32,1.796 2.039,2.773 0.718,0.973 1.232,1.716 1.54,2.232 0.156,0.203 0.373,0.513 0.655,0.922 0.281,0.412 0.526,0.772 0.731,1.078 0.205,0.31 0.449,0.655 0.731,1.038 0.282,0.387 0.552,0.734 0.81,1.043 0.255,0.306 0.539,0.615 0.848,0.925 0.305,0.307 0.628,0.585 0.96,0.845 0.335,0.256 0.655,0.463 0.964,0.617 0.82,0.202 1.54,0.305 2.156,0.305 0.616,0 1.281,-0.229 2.002,-0.689 0.716,-0.464 1.347,-0.952 1.885,-1.463 0.54,-0.514 1.128,-1.157 1.772,-1.927 0.642,-0.769 1.179,-1.477 1.617,-2.117 0.435,-0.645 0.898,-1.323 1.385,-2.041 0.488,-0.72 0.912,-1.284 1.27,-1.693 1.797,-2.207 3.414,-3.506 4.852,-3.89 1.436,-0.384 3.488,-0.088 6.158,0.885 C -10.371,-10.165 -4.824,-6.007 0,0" /></g><g
           transform="matrix(2.273484,0,0,2.273484,625.6296,360.62622)"
           id="g68"><path
             id="path70"
             style="fill:#031247;fill-opacity:1;fill-rule:nonzero;stroke:none"
             d="m 0,0 c -0.719,-0.055 -1.5,-0.491 -2.348,-1.309 -0.848,-0.823 -1.578,-1.721 -2.195,-2.696 1.077,-0.513 2.386,0.103 3.928,1.848 1.025,1.18 1.308,1.898 0.847,2.157 z m 24.408,-0.464 c 0.461,0.464 0.95,0.579 1.463,0.345 0.513,-0.229 0.833,-0.615 0.963,-1.155 C 26.962,-1.812 26.821,-2.338 26.41,-2.852 15.835,-13.682 6.7,-18.173 -1,-16.325 c -2.721,0.617 -4.774,1.812 -6.161,3.578 -1.384,1.772 -1.937,3.748 -1.654,5.933 0.281,2.181 1.297,4.272 3.041,6.274 1.385,1.489 3.181,2.694 5.389,3.616 C 2.898,4.41 4.517,3.59 4.467,0.614 V 0.461 C 4.414,-1.543 3.206,-3.44 0.848,-5.238 c -2.364,-1.797 -4.493,-2.386 -6.391,-1.77 -0.205,-2.309 0.77,-4.031 2.925,-5.159 2.157,-1.128 4.516,-1.462 7.085,-1.002 3.643,0.666 7.045,2.09 10.2,4.273 3.158,2.18 6.405,4.994 9.741,8.432" /></g><g
           transform="matrix(2.273484,0,0,2.273484,749.66543,358.34387)"
           id="g72"><path
             id="path74"
             style="fill:#031247;fill-opacity:1;fill-rule:nonzero;stroke:none"
             d="M 0,0 C 0.308,0.256 0.625,0.386 0.963,0.386 1.296,0.386 1.59,0.282 1.849,0.08 2.104,-0.126 2.296,-0.373 2.426,-0.654 2.554,-0.936 2.594,-1.23 2.54,-1.538 2.488,-1.848 2.311,-2.131 2.001,-2.386 -1.694,-5.312 -5.842,-6.7 -10.434,-6.542 c -4.593,0.152 -8.609,1.795 -12.048,4.925 -1.848,-2.207 -3.403,-4.85 -4.661,-7.929 -1.255,-3.079 -2.218,-6.263 -2.885,-9.548 -0.103,-0.616 -0.411,-1.025 -0.923,-1.231 -0.514,-0.204 -1.004,-0.154 -1.463,0.152 -0.463,0.31 -0.694,0.798 -0.694,1.465 0.205,6.981 1.565,15.014 4.08,24.101 0.155,0.614 0.514,0.949 1.077,0.998 0.565,0.053 1.054,-0.141 1.465,-0.577 0.409,-0.435 0.538,-0.936 0.384,-1.5 -0.874,-3.131 -1.617,-6.187 -2.232,-9.163 1.437,2.617 3.026,4.824 4.774,6.622 0.309,0.308 0.678,0.434 1.116,0.384 0.436,-0.054 0.78,-0.229 1.04,-0.539 2.823,-3.081 6.287,-4.773 10.393,-5.083 C -6.904,-3.774 -3.236,-2.616 0,0" /></g><g
           transform="matrix(2.273484,0,0,2.273484,753.89047,321.5864)"
           id="g76"><path
             id="path78"
             style="fill:#031247;fill-opacity:1;fill-rule:nonzero;stroke:none"
             d="M 0,0 C 0.976,-0.873 2.438,-0.282 4.388,1.771 6.646,4.131 7.854,6.596 8.008,9.165 8.16,11.369 7.21,12.933 5.159,13.858 4.746,13.398 4.312,12.844 3.85,12.205 3.388,11.563 2.849,10.78 2.233,9.857 1.616,8.932 1.078,8.008 0.615,7.083 0.152,6.161 -0.232,5.25 -0.54,4.352 -0.848,3.451 -0.963,2.619 -0.886,1.85 -0.81,1.078 -0.513,0.463 0,0 M 5.081,17.172 C 7.495,16.554 9.187,15.078 10.163,12.743 11.139,10.406 11.188,8.058 10.317,5.697 9.546,3.438 8.392,1.36 6.853,-0.536 5.312,-2.438 3.566,-3.438 1.616,-3.542 c -2.004,-0.103 -3.452,0.589 -4.349,2.081 -0.898,1.486 -1.168,3.207 -0.808,5.159 0.715,4.002 2.794,8.007 6.237,12.012 0.1,0.099 0.229,0.202 0.384,0.305 0.358,0.976 1.024,1.358 2.001,1.157" /></g><g
           transform="matrix(2.273484,0,0,2.273484,587.24023,379.35472)"
           id="g80"><path
             id="path82"
             style="fill:#031247;fill-opacity:1;fill-rule:nonzero;stroke:none"
             d="m 0,0 c -0.359,-0.209 -0.745,-0.221 -1.157,-0.039 -0.41,0.18 -0.692,0.45 -0.846,0.809 -0.359,0.819 -0.103,1.514 0.77,2.077 l 5.39,3.235 C 4.515,6.288 4.915,6.298 5.353,6.121 5.785,5.939 6.081,5.67 6.235,5.313 6.593,4.437 6.338,3.745 5.467,3.233 Z" /></g><g
           transform="matrix(2.273484,0,0,2.273484,305.26387,391.00428)"
           id="g84"><path
             id="path86"
             style="fill:#031247;fill-opacity:1;fill-rule:nonzero;stroke:none"
             d="m 0,0 c -23.265,0 -38.634,12.927 -38.842,13.105 -0.627,0.541 -0.698,1.487 -0.158,2.115 0.54,0.628 1.487,0.698 2.115,0.159 0.269,-0.231 27.303,-22.875 63.692,-6.336 0.68,0.31 1.425,0.669 2.234,1.061 7.736,3.736 20.683,9.992 38.711,3.813 6.689,-2.292 12.333,-2.428 16.32,-0.39 3.39,1.732 4.669,4.533 5.131,6.048 0.24,0.793 1.081,1.238 1.871,0.998 0.793,-0.241 1.24,-1.08 0.998,-1.872 C 91.037,15.299 88.681,12.513 85.438,10.855 82.143,9.169 76.229,7.84 66.779,11.079 49.917,16.857 37.666,10.938 30.346,7.402 29.514,7 28.748,6.63 28.049,6.312 17.895,1.697 8.428,0 0,0" /></g><g
           transform="matrix(2.273484,0,0,2.273484,-536.18507,-379.7102)"
           id="g88"><g
             id="g90" /><g
             id="g102"><g
               id="g100"
               opacity="0.300003"
               clip-path="url(#clipPath94)"><g
                 id="g98"
                 transform="translate(460.6836,252.2959)"><path
                   id="path96"
                   style="fill:#19b4bb;fill-opacity:1;fill-rule:nonzero;stroke:none"
                   d="m 0,0 c 0.409,1.062 0.671,2.859 0.582,3.993 l -1.807,22.98 c -0.088,1.133 -0.497,1.193 -0.906,0.131 L -10.431,5.58 C -10.84,4.519 -11.102,2.722 -11.013,1.588 l 1.807,-22.981 c 0.089,-1.134 0.497,-1.193 0.906,-0.132 z" /></g></g></g></g><g
           transform="matrix(2.273484,0,0,2.273484,-536.18507,-379.7102)"
           id="g104"><g
             id="g106" /><g
             id="g118"><g
               id="g116"
               opacity="0.300003"
               clip-path="url(#clipPath110)"><g
                 id="g114"
                 transform="translate(452.6768,249.876)"><path
                   id="path112"
                   style="fill:#19b4bb;fill-opacity:1;fill-rule:nonzero;stroke:none"
                   d="m 0,0 c 1.062,-0.41 2.858,-0.672 3.993,-0.583 l 22.981,1.802 c 1.134,0.09 1.194,0.497 0.131,0.906 L 5.582,10.424 C 4.52,10.833 2.724,11.096 1.589,11.006 l -22.98,-1.803 c -1.134,-0.09 -1.194,-0.497 -0.131,-0.906 z" /></g></g></g></g><g
           transform="matrix(2.273484,0,0,2.273484,493.32124,220.02328)"
           id="g120"><path
             id="path122"
             style="fill:#19b4bb;fill-opacity:1;fill-rule:nonzero;stroke:none"
             d="m 0,0 c -1.6,-0.71 -3.201,-2.692 -3.557,-4.407 l -1.566,-7.53 c -0.356,-1.713 0.78,-3.225 2.526,-3.359 l 7.606,-0.582 c 1.746,-0.135 4.104,0.846 5.241,2.176 l 23.034,26.961 c 1.137,1.331 0.758,1.84 -0.842,1.129 z" /></g><g
           transform="matrix(2.273484,0,0,2.273484,505.31046,180.43715)"
           id="g124"><path
             id="path126"
             style="fill:#19b4bb;fill-opacity:1;fill-rule:nonzero;stroke:none"
             d="m 0,0 c 1.6,0.71 3.2,2.692 3.556,4.407 l 1.563,7.531 c 0.356,1.713 -0.781,3.225 -2.527,3.359 l -7.601,0.581 c -1.746,0.135 -4.104,-0.846 -5.241,-2.176 l -23.038,-26.963 c -1.138,-1.33 -0.759,-1.839 0.842,-1.129 z" /></g><g
           transform="matrix(2.273484,0,0,2.273484,486.8916,183.0437)"
           id="g128"><path
             id="path130"
             style="fill:#5de7cc;fill-opacity:1;fill-rule:nonzero;stroke:none"
             d="m 0,0 c -1.618,0.667 -3.112,2.636 -3.319,4.373 l -1.698,14.244 c -0.207,1.737 0.95,2.618 2.57,1.956 l 13.368,-5.462 c 1.62,-0.662 3.099,-2.628 3.285,-4.368 l 1.523,-14.201 c 0.186,-1.74 -0.986,-2.618 -2.604,-1.951 z" /></g><g
           transform="matrix(2.273484,0,0,2.273484,487.54659,293.1699)"
           id="g132"><path
             id="path134"
             style="fill:#031247;fill-opacity:1;fill-rule:nonzero;stroke:none"
             d="m 0,0 c -10.67,0 -19.737,-3.064 -26.528,-9.029 -8.263,-7.256 -12.813,-18.421 -12.813,-31.437 0,-25.482 16.545,-41.947 42.152,-41.947 21.937,0 37.121,14.821 45.128,44.053 0.816,2.973 1.394,6.082 2.111,13.981 0.629,6.903 0.672,14.329 0.586,19.575 C 39.821,-4.225 27.255,-3.047 7.97,-0.534 5.227,-0.178 2.567,0 0,0 m 2.811,-85.413 c -27.429,0 -45.152,17.642 -45.152,44.947 0,13.892 4.912,25.857 13.833,33.692 9.091,7.985 21.838,11.171 36.864,9.214 19.025,-2.478 31.467,-3.651 42.149,-4.232 -0.721,10.098 -4.442,37.066 -4.483,37.362 -0.113,0.821 0.46,1.578 1.282,1.691 0.813,0.119 1.577,-0.459 1.691,-1.28 0.169,-1.224 3.859,-27.975 4.527,-37.923 3.579,-0.163 7.003,-0.265 10.47,-0.332 5.323,-0.116 27.429,0.71 51.515,4.245 l 0.207,0.03 c 4.255,0.626 17.204,2.533 33.085,12.724 0.697,0.446 1.625,0.245 2.073,-0.453 0.447,-0.697 0.245,-1.625 -0.452,-2.073 C 133.995,1.66 120.564,-0.317 116.15,-0.967 l -0.206,-0.031 c -22.486,-3.299 -44.983,-4.399 -52.01,-4.276 -3.413,0.067 -6.782,0.166 -10.295,0.323 0.083,-5.31 0.031,-12.751 -0.601,-19.699 -0.738,-8.122 -1.345,-11.364 -2.206,-14.503 -8.408,-30.696 -24.565,-46.26 -48.021,-46.26" /></g></g></g></g></svg>
